<svg width="90" height="14" viewBox="0 0 90 14" fill="none" xmlns="http://www.w3.org/2000/svg">
<path d="M23.84 4.08V11H22.93V5.84L20.63 11H19.99L17.68 5.83V11H16.77V4.08H17.75L20.31 9.8L22.87 4.08H23.84ZM27.7733 11.09C27.2599 11.09 26.7933 10.9733 26.3733 10.74C25.9599 10.5067 25.6333 10.1767 25.3933 9.75C25.1599 9.31667 25.0433 8.81667 25.0433 8.25C25.0433 7.69 25.1633 7.19667 25.4033 6.77C25.6499 6.33667 25.9833 6.00667 26.4033 5.78C26.8233 5.54667 27.2933 5.43 27.8133 5.43C28.3333 5.43 28.8033 5.54667 29.2233 5.78C29.6433 6.00667 29.9733 6.33333 30.2133 6.76C30.4599 7.18667 30.5833 7.68333 30.5833 8.25C30.5833 8.81667 30.4566 9.31667 30.2033 9.75C29.9566 10.1767 29.6199 10.5067 29.1933 10.74C28.7666 10.9733 28.2933 11.09 27.7733 11.09ZM27.7733 10.29C28.0999 10.29 28.4066 10.2133 28.6933 10.06C28.9799 9.90667 29.2099 9.67667 29.3833 9.37C29.5633 9.06333 29.6533 8.69 29.6533 8.25C29.6533 7.81 29.5666 7.43667 29.3933 7.13C29.2199 6.82333 28.9933 6.59667 28.7133 6.45C28.4333 6.29667 28.1299 6.22 27.8033 6.22C27.4699 6.22 27.1633 6.29667 26.8833 6.45C26.6099 6.59667 26.3899 6.82333 26.2233 7.13C26.0566 7.43667 25.9733 7.81 25.9733 8.25C25.9733 8.69667 26.0533 9.07333 26.2133 9.38C26.3799 9.68667 26.5999 9.91667 26.8733 10.07C27.1466 10.2167 27.4466 10.29 27.7733 10.29ZM31.4398 8.24C31.4398 7.68 31.5531 7.19 31.7798 6.77C32.0064 6.34333 32.3164 6.01333 32.7098 5.78C33.1098 5.54667 33.5564 5.43 34.0498 5.43C34.4764 5.43 34.8731 5.53 35.2398 5.73C35.6064 5.92333 35.8864 6.18 36.0798 6.5V3.6H36.9998V11H36.0798V9.97C35.8998 10.2967 35.6331 10.5667 35.2798 10.78C34.9264 10.9867 34.5131 11.09 34.0398 11.09C33.5531 11.09 33.1098 10.97 32.7098 10.73C32.3164 10.49 32.0064 10.1533 31.7798 9.72C31.5531 9.28667 31.4398 8.79333 31.4398 8.24ZM36.0798 8.25C36.0798 7.83667 35.9964 7.47667 35.8298 7.17C35.6631 6.86333 35.4364 6.63 35.1498 6.47C34.8698 6.30333 34.5598 6.22 34.2198 6.22C33.8798 6.22 33.5698 6.3 33.2898 6.46C33.0098 6.62 32.7864 6.85333 32.6198 7.16C32.4531 7.46667 32.3698 7.82667 32.3698 8.24C32.3698 8.66 32.4531 9.02667 32.6198 9.34C32.7864 9.64667 33.0098 9.88333 33.2898 10.05C33.5698 10.21 33.8798 10.29 34.2198 10.29C34.5598 10.29 34.8698 10.21 35.1498 10.05C35.4364 9.88333 35.6631 9.64667 35.8298 9.34C35.9964 9.02667 36.0798 8.66333 36.0798 8.25ZM38.1976 8.24C38.1976 7.68 38.3109 7.19 38.5376 6.77C38.7642 6.34333 39.0742 6.01333 39.4676 5.78C39.8676 5.54667 40.3109 5.43 40.7976 5.43C41.2776 5.43 41.6942 5.53333 42.0476 5.74C42.4009 5.94667 42.6642 6.20667 42.8376 6.52V5.52H43.7576V11H42.8376V9.98C42.6576 10.3 42.3876 10.5667 42.0276 10.78C41.6742 10.9867 41.2609 11.09 40.7876 11.09C40.3009 11.09 39.8609 10.97 39.4676 10.73C39.0742 10.49 38.7642 10.1533 38.5376 9.72C38.3109 9.28667 38.1976 8.79333 38.1976 8.24ZM42.8376 8.25C42.8376 7.83667 42.7542 7.47667 42.5876 7.17C42.4209 6.86333 42.1942 6.63 41.9076 6.47C41.6276 6.30333 41.3176 6.22 40.9776 6.22C40.6376 6.22 40.3276 6.3 40.0476 6.46C39.7676 6.62 39.5442 6.85333 39.3776 7.16C39.2109 7.46667 39.1276 7.82667 39.1276 8.24C39.1276 8.66 39.2109 9.02667 39.3776 9.34C39.5442 9.64667 39.7676 9.88333 40.0476 10.05C40.3276 10.21 40.6376 10.29 40.9776 10.29C41.3176 10.29 41.6276 10.21 41.9076 10.05C42.1942 9.88333 42.4209 9.64667 42.5876 9.34C42.7542 9.02667 42.8376 8.66333 42.8376 8.25ZM52.6214 6.07C52.6214 6.65 52.4214 7.13333 52.0214 7.52C51.6281 7.9 51.0247 8.09 50.2114 8.09H48.8714V11H47.9614V4.03H50.2114C50.9981 4.03 51.5947 4.22 52.0014 4.6C52.4147 4.98 52.6214 5.47 52.6214 6.07ZM50.2114 7.34C50.7181 7.34 51.0914 7.23 51.3314 7.01C51.5714 6.79 51.6914 6.47667 51.6914 6.07C51.6914 5.21 51.1981 4.78 50.2114 4.78H48.8714V7.34H50.2114ZM53.4124 8.24C53.4124 7.68 53.5258 7.19 53.7524 6.77C53.9791 6.34333 54.2891 6.01333 54.6824 5.78C55.0824 5.54667 55.5258 5.43 56.0124 5.43C56.4924 5.43 56.9091 5.53333 57.2624 5.74C57.6158 5.94667 57.8791 6.20667 58.0524 6.52V5.52H58.9724V11H58.0524V9.98C57.8724 10.3 57.6024 10.5667 57.2424 10.78C56.8891 10.9867 56.4758 11.09 56.0024 11.09C55.5158 11.09 55.0758 10.97 54.6824 10.73C54.2891 10.49 53.9791 10.1533 53.7524 9.72C53.5258 9.28667 53.4124 8.79333 53.4124 8.24ZM58.0524 8.25C58.0524 7.83667 57.9691 7.47667 57.8024 7.17C57.6358 6.86333 57.4091 6.63 57.1224 6.47C56.8424 6.30333 56.5324 6.22 56.1924 6.22C55.8524 6.22 55.5424 6.3 55.2624 6.46C54.9824 6.62 54.7591 6.85333 54.5924 7.16C54.4258 7.46667 54.3424 7.82667 54.3424 8.24C54.3424 8.66 54.4258 9.02667 54.5924 9.34C54.7591 9.64667 54.9824 9.88333 55.2624 10.05C55.5424 10.21 55.8524 10.29 56.1924 10.29C56.5324 10.29 56.8424 10.21 57.1224 10.05C57.4091 9.88333 57.6358 9.64667 57.8024 9.34C57.9691 9.02667 58.0524 8.66333 58.0524 8.25ZM61.1902 10.25H63.8802V11H60.1502V10.25L62.8102 6.26H60.1702V5.52H63.8602V6.26L61.1902 10.25ZM64.721 8.24C64.721 7.68 64.8343 7.19 65.061 6.77C65.2877 6.34333 65.5977 6.01333 65.991 5.78C66.391 5.54667 66.8343 5.43 67.321 5.43C67.801 5.43 68.2177 5.53333 68.571 5.74C68.9243 5.94667 69.1877 6.20667 69.361 6.52V5.52H70.281V11H69.361V9.98C69.181 10.3 68.911 10.5667 68.551 10.78C68.1977 10.9867 67.7843 11.09 67.311 11.09C66.8243 11.09 66.3843 10.97 65.991 10.73C65.5977 10.49 65.2877 10.1533 65.061 9.72C64.8343 9.28667 64.721 8.79333 64.721 8.24ZM69.361 8.25C69.361 7.83667 69.2777 7.47667 69.111 7.17C68.9443 6.86333 68.7177 6.63 68.431 6.47C68.151 6.30333 67.841 6.22 67.501 6.22C67.161 6.22 66.851 6.3 66.571 6.46C66.291 6.62 66.0677 6.85333 65.901 7.16C65.7343 7.46667 65.651 7.82667 65.651 8.24C65.651 8.66 65.7343 9.02667 65.901 9.34C66.0677 9.64667 66.291 9.88333 66.571 10.05C66.851 10.21 67.161 10.29 67.501 10.29C67.841 10.29 68.151 10.21 68.431 10.05C68.7177 9.88333 68.9443 9.64667 69.111 9.34C69.2777 9.02667 69.361 8.66333 69.361 8.25ZM72.7288 6.41C72.8888 6.09667 73.1155 5.85333 73.4088 5.68C73.7088 5.50667 74.0722 5.42 74.4988 5.42V6.36H74.2588C73.2388 6.36 72.7288 6.91333 72.7288 8.02V11H71.8188V5.52H72.7288V6.41ZM76.0193 4.63C75.846 4.63 75.6993 4.57 75.5793 4.45C75.4593 4.33 75.3993 4.18333 75.3993 4.01C75.3993 3.83667 75.4593 3.69 75.5793 3.57C75.6993 3.45 75.846 3.39 76.0193 3.39C76.186 3.39 76.326 3.45 76.4393 3.57C76.5593 3.69 76.6193 3.83667 76.6193 4.01C76.6193 4.18333 76.5593 4.33 76.4393 4.45C76.326 4.57 76.186 4.63 76.0193 4.63ZM76.4593 5.52V11H75.5493V5.52H76.4593Z" fill="black"/>
<g clip-path="url(#clip0_1_34)">
<path d="M1.75 3.5L3.5 1.16667H10.5L12.25 3.5M1.75 3.5V11.6667C1.75 11.9761 1.87292 12.2728 2.09171 12.4916C2.3105 12.7104 2.60725 12.8333 2.91667 12.8333H11.0833C11.3928 12.8333 11.6895 12.7104 11.9083 12.4916C12.1271 12.2728 12.25 11.9761 12.25 11.6667V3.5M1.75 3.5H12.25M9.33333 5.83333C9.33333 6.45217 9.0875 7.04567 8.64992 7.48325C8.21233 7.92084 7.61884 8.16667 7 8.16667C6.38116 8.16667 5.78767 7.92084 5.35008 7.48325C4.9125 7.04567 4.66667 6.45217 4.66667 5.83333" stroke="#7A2048" stroke-width="2" stroke-linecap="round" stroke-linejoin="round"/>
</g>
<defs>
<clipPath id="clip0_1_34">
<rect width="14" height="14" fill="white"/>
</clipPath>
</defs>
</svg>
